<svg data-v-423bf9ae="" xmlns="http://www.w3.org/2000/svg" viewBox="0 0 398 90" class="iconLeftSlogan"><!----><!----><!----><g data-v-423bf9ae="" id="4860cc4c-06a4-48ad-8f1c-acd1a954408c" fill="black" transform="matrix(3.4285714285714284,0,0,3.4285714285714284,108.45714804530144,-17.657142707279746)"><path d="M8.29 10.96L8.29 10.96Q8.71 10.96 8.94 11.24L8.94 11.24L8.94 11.24Q9.17 11.51 9.17 12.15L9.17 12.15L9.17 16.91L9.17 16.91Q9.17 17.12 9.27 17.26L9.27 17.26L9.27 17.26Q9.37 17.39 9.53 17.39L9.53 17.39L9.53 17.39Q9.70 17.39 9.90 17.25L9.90 17.25L9.90 17.25Q10.09 17.11 10.28 16.84L10.28 16.84L10.50 17.05L10.50 17.05Q10.21 17.68 9.80 17.93L9.80 17.93L9.80 17.93Q9.39 18.17 9.65 18.17L9.65 18.17L9.65 18.17Q9.90 18.16 9.04 18.16L9.04 18.16L9.04 18.16Q7.88 18.16 7.88 16.74L7.88 16.74L7.88 12.88L7.88 12.88Q7.88 12.74 7.81 12.64L7.81 12.64L7.81 12.64Q7.74 12.54 7.63 12.54L7.63 12.54L7.63 12.54Q7.32 12.54 6.96 13.22L6.96 13.22L6.96 13.22Q6.59 13.89 6.34 15.11L6.34 15.11L6.34 15.11Q6.09 16.34 6.09 17.92L6.09 17.92L4.82 18.28L4.82 12.88L4.82 12.88Q4.82 12.74 4.75 12.64L4.75 12.64L4.75 12.64Q4.68 12.54 4.58 12.54L4.58 12.54L4.58 12.54Q4.30 12.54 3.93 13.22L3.93 13.22L3.93 13.22Q3.56 13.90 3.28 15.13L3.28 15.13L3.28 15.13Q3.01 16.35 3.01 17.92L3.01 17.92L1.81 18.28L1.81 12.29L1.81 12.29Q1.81 12.05 1.69 11.91L1.69 11.91L1.69 11.91Q1.57 11.77 1.39 11.77L1.39 11.77L1.39 11.77Q1.04 11.77 0.67 12.38L0.67 12.38L0.45 12.15L0.45 12.15Q0.74 11.52 1.15 11.25L1.15 11.25L1.15 11.25Q1.55 10.98 1.65 10.97L1.65 10.97L1.65 10.97Q1.74 10.96 1.92 10.96L1.92 10.96L1.92 10.96Q2.59 10.96 2.83 11.25L2.83 11.25L2.83 11.25Q3.07 11.54 3.07 12.01L3.07 12.01L3.07 14.35L3.11 14.35L3.11 14.35Q3.46 12.82 4.05 11.89L4.05 11.89L4.05 11.89Q4.65 10.96 5.24 10.96L5.24 10.96L5.24 10.96Q5.67 10.96 5.89 11.23L5.89 11.23L5.89 11.23Q6.10 11.49 6.10 12.15L6.10 12.15L6.10 14.35L6.19 14.35L6.19 14.35Q6.54 12.82 7.12 11.89L7.12 11.89L7.12 11.89Q7.70 10.96 8.29 10.96L8.29 10.96ZM15.29 11.09L15.29 11.09Q15.97 11.09 16.58 11.38L16.58 11.38L16.58 11.38Q17.19 11.68 17.47 12.28L17.47 12.28L16.46 12.82L16.46 12.82Q16.24 12.50 15.85 12.24L15.85 12.24L15.85 12.24Q15.46 11.98 15.01 11.98L15.01 11.98L15.01 11.98Q14.29 11.98 13.76 12.36L13.76 12.36L13.76 12.36Q13.23 12.73 12.95 13.36L12.95 13.36L12.95 13.36Q12.67 13.99 12.67 14.76L12.67 14.76L12.67 14.76Q12.67 15.86 13.05 16.55L13.05 16.55L13.05 16.55Q13.43 17.25 14.24 17.25L14.24 17.25L14.24 17.25Q15.39 17.25 15.82 16.32L15.82 16.32L15.82 16.32Q16.25 15.40 16.25 14.31L16.25 14.31L16.25 13.68L17.49 13.16L17.49 16.84L17.49 16.84Q17.49 17.02 17.58 17.19L17.58 17.19L17.58 17.19Q17.68 17.36 17.88 17.36L17.88 17.36L17.88 17.36Q18.28 17.36 18.62 16.80L18.62 16.80L18.83 17.02L18.83 17.02Q18.66 17.50 18.24 17.83L18.24 17.83L18.24 17.83Q17.82 18.16 17.40 18.16L17.40 18.16L17.40 18.16Q16.80 18.16 16.51 17.71L16.51 17.71L16.51 17.71Q16.23 17.26 16.23 16.52L16.23 16.52L16.20 16.52L16.20 16.52Q15.85 17.26 15.25 17.76L15.25 17.76L15.25 17.76Q14.66 18.26 14 18.26L14 18.26L14 18.26Q12.81 18.26 12.20 17.44L12.20 17.44L12.20 17.44Q11.59 16.62 11.59 15.25L11.59 15.25L11.59 15.25Q11.59 14.15 12.08 13.20L12.08 13.20L12.08 13.20Q12.57 12.24 13.42 11.66L13.42 11.66L13.42 11.66Q14.27 11.09 15.29 11.09L15.29 11.09ZM21.69 10.51L21.69 10.51Q22.16 10.51 22.38 10.68L22.38 10.68L22.38 10.68Q22.60 10.85 22.60 11.20L22.60 11.20L22.60 11.20Q22.60 11.58 22.45 11.87L22.45 11.87L22.45 11.87Q22.30 12.17 22.13 12.38L22.13 12.38L22.13 12.38Q21.97 12.59 21.91 12.67L21.91 12.67L21.91 12.67Q22.08 12.95 22.54 13.33L22.54 13.33L22.54 13.33Q22.92 13.65 23.14 13.90L23.14 13.90L23.14 13.90Q23.37 14.15 23.53 14.58L23.53 14.58L23.53 14.58Q23.69 15.01 23.69 15.62L23.69 15.62L23.69 15.62Q23.69 16.35 23.36 16.95L23.36 16.95L23.36 16.95Q23.03 17.56 22.45 17.91L22.45 17.91L22.45 17.91Q21.87 18.26 21.14 18.26L21.14 18.26L21.14 18.26Q20.69 18.26 20.16 18.07L20.16 18.07L20.16 18.07Q19.63 17.88 19.38 17.53L19.38 17.53L20.31 16.28L20.31 16.28Q20.65 16.72 21.02 17.02L21.02 17.02L21.02 17.02Q21.39 17.33 21.83 17.33L21.83 17.33L21.83 17.33Q22.43 17.33 22.86 16.93L22.86 16.93L22.86 16.93Q23.28 16.53 23.28 15.97L23.28 15.97L23.28 15.97Q23.28 15.53 22.91 15.09L22.91 15.09L22.91 15.09Q22.54 14.64 21.87 14.04L21.87 14.04L21.87 14.04Q21.78 13.97 21.55 13.76L21.55 13.76L21.55 13.76Q21.31 13.54 21.20 13.40L21.20 13.40L20.22 14.84L19.77 14.55L20.89 12.99L20.89 12.99Q20.69 12.45 20.69 11.91L20.69 11.91L20.69 11.91Q20.69 11.31 20.96 10.91L20.96 10.91L20.96 10.91Q21.22 10.51 21.69 10.51L21.69 10.51ZM21.69 11.06L21.69 11.06Q21.50 11.06 21.46 11.16L21.46 11.16L21.46 11.16Q21.41 11.26 21.41 11.45L21.41 11.45L21.41 11.45Q21.41 11.70 21.48 11.89L21.48 11.89L21.48 11.89Q21.55 12.07 21.57 12.14L21.57 12.14L21.57 12.14Q21.73 12.04 21.86 11.78L21.86 11.78L21.86 11.78Q21.99 11.52 21.99 11.34L21.99 11.34L21.99 11.34Q21.99 11.21 21.92 11.14L21.92 11.14L21.92 11.14Q21.84 11.06 21.69 11.06L21.69 11.06ZM26.96 7.36L26.96 11.09L28.91 11.09L28.49 11.98L26.96 11.98L26.96 16.91L26.96 16.91Q26.96 17.12 27.09 17.26L27.09 17.26L27.09 17.26Q27.22 17.39 27.43 17.39L27.43 17.39L27.43 17.39Q27.72 17.39 28.24 16.84L28.24 16.84L28.43 17.05L28.43 17.05Q28.17 17.58 27.80 17.84L27.80 17.84L27.80 17.84Q27.43 18.10 27.10 18.17L27.10 18.17L27.10 18.17Q26.77 18.23 26.77 18.17L26.77 18.17L26.77 18.17Q26.78 18.17 26.81 18.17L26.81 18.17L26.81 18.17Q26.84 18.16 26.89 18.16L26.89 18.16L26.89 18.16Q25.66 18.16 25.66 16.74L25.66 16.74L25.66 11.98L24.61 11.98L25.05 11.09L25.66 11.09L25.66 7.87L26.96 7.36ZM33.67 10.96L33.67 10.96Q34.43 10.96 34.93 11.37L34.93 11.37L34.93 11.37Q35.43 11.77 35.43 12.57L35.43 12.57L35.43 12.57Q35.43 13.22 34.74 14.01L34.74 14.01L34.74 14.01Q34.05 14.80 33.12 15.46L33.12 15.46L33.12 15.46Q32.19 16.11 31.53 16.38L31.53 16.38L31.53 16.38Q31.88 16.94 32.33 17.16L32.33 17.16L32.33 17.16Q32.77 17.37 33.38 17.37L33.38 17.37L33.38 17.37Q34.05 17.37 34.71 17.03L34.71 17.03L34.71 17.03Q35.38 16.69 35.81 16.14L35.81 16.14L35.98 16.44L35.98 16.44Q35.29 17.32 34.52 17.79L34.52 17.79L34.52 17.79Q33.75 18.26 32.63 18.26L32.63 18.26L32.63 18.26Q31.78 18.26 31.11 17.84L31.11 17.84L31.11 17.84Q30.44 17.42 30.06 16.71L30.06 16.71L30.06 16.71Q29.68 16.00 29.68 15.18L29.68 15.18L29.68 15.18Q29.68 14.14 30.24 13.16L30.24 13.16L30.24 13.16Q30.80 12.18 31.72 11.57L31.72 11.57L31.72 11.57Q32.65 10.96 33.67 10.96L33.67 10.96ZM32.94 11.84L32.94 11.84Q32.33 11.84 31.84 12.24L31.84 12.24L31.84 12.24Q31.36 12.63 31.09 13.24L31.09 13.24L31.09 13.24Q30.81 13.86 30.81 14.52L30.81 14.52L30.81 14.52Q30.81 15.39 31.22 16.00L31.22 16.00L31.22 16.00Q31.81 15.74 32.49 15.20L32.49 15.20L32.49 15.20Q33.18 14.66 33.66 14.03L33.66 14.03L33.66 14.03Q34.13 13.40 34.13 12.88L34.13 12.88L34.13 12.88Q34.13 11.84 32.94 11.84L32.94 11.84ZM40.22 12.80L40.22 12.80Q39.59 13.45 39.14 14.51L39.14 14.51L39.14 14.51Q38.68 15.57 38.68 16.44L38.68 16.44L38.68 16.44Q38.68 17.19 39.01 17.70L39.01 17.70L39.01 17.70Q39.34 18.21 40.07 18.21L40.07 18.21L40.07 18.21Q40.66 18.21 41.20 17.91L41.20 17.91L41.20 17.91Q41.73 17.60 42.11 17.11L42.11 17.11L41.96 16.90L41.96 16.90Q41.52 17.19 41.10 17.19L41.10 17.19L41.10 17.19Q40.45 17.19 40.11 16.73L40.11 16.73L40.11 16.73Q39.77 16.27 39.77 15.61L39.77 15.61L39.77 15.61Q39.77 14.55 40.32 13.59L40.32 13.59L40.32 13.59Q40.87 12.64 41.71 11.75L41.71 11.75L41.48 11.55L41.48 11.55Q40.50 12.17 39.69 12.17L39.69 12.17L39.69 12.17Q39.21 12.17 38.82 11.74L38.82 11.74L38.82 11.74Q38.43 11.31 38.22 10.79L38.22 10.79L37.09 12.07L37.09 12.07Q37.18 12.35 37.62 12.71L37.62 12.71L36.68 14.67L37.20 14.91L38.11 12.91L38.11 12.91Q38.35 13.01 38.50 13.03L38.50 13.03L38.50 13.03Q38.65 13.06 38.92 13.06L38.92 13.06L38.92 13.06Q39.61 13.06 40.18 12.75L40.18 12.75L40.22 12.80ZM48.08 5.15L48.08 16.91L48.08 16.91Q48.08 17.08 48.17 17.23L48.17 17.23L48.17 17.23Q48.27 17.39 48.51 17.39L48.51 17.39L48.51 17.39Q48.71 17.39 48.92 17.21L48.92 17.21L48.92 17.21Q49.14 17.04 49.25 16.84L49.25 16.84L49.49 17.05L49.49 17.05Q49.25 17.51 48.83 17.84L48.83 17.84L48.83 17.84Q48.41 18.16 47.99 18.16L47.99 18.16L47.99 18.16Q46.82 18.16 46.82 16.74L46.82 16.74L46.82 5.68L48.08 5.15ZM52.28 6.41L51.80 9.67L51.34 9.84L50.76 6.93L52.28 6.41ZM52.26 11.14L52.26 16.91L52.26 16.91Q52.26 17.12 52.37 17.26L52.37 17.26L52.37 17.26Q52.47 17.39 52.67 17.39L52.67 17.39L52.67 17.39Q52.82 17.39 53.01 17.25L53.01 17.25L53.01 17.25Q53.20 17.11 53.40 16.84L53.40 16.84L53.62 17.05L53.62 17.05Q53.30 17.65 52.84 17.91L52.84 17.91L52.84 17.91Q52.39 18.16 52.01 18.16L52.01 18.16L52.01 18.16Q51.51 18.16 51.23 17.84L51.23 17.84L51.23 17.84Q50.96 17.51 50.96 16.74L50.96 16.74L50.96 11.65L52.26 11.14ZM62.15 10.96L62.15 10.96Q62.57 10.96 62.80 11.24L62.80 11.24L62.80 11.24Q63.03 11.51 63.03 12.15L63.03 12.15L63.03 16.91L63.03 16.91Q63.03 17.12 63.13 17.26L63.13 17.26L63.13 17.26Q63.22 17.39 63.39 17.39L63.39 17.39L63.39 17.39Q63.56 17.39 63.76 17.25L63.76 17.25L63.76 17.25Q63.95 17.11 64.13 16.84L64.13 16.84L64.36 17.05L64.36 17.05Q64.06 17.68 63.66 17.93L63.66 17.93L63.66 17.93Q63.25 18.17 63.50 18.17L63.50 18.17L63.50 18.17Q63.76 18.16 62.90 18.16L62.90 18.16L62.90 18.16Q61.74 18.16 61.74 16.74L61.74 16.74L61.74 12.88L61.74 12.88Q61.74 12.74 61.67 12.64L61.67 12.64L61.67 12.64Q61.60 12.54 61.49 12.54L61.49 12.54L61.49 12.54Q61.18 12.54 60.82 13.22L60.82 13.22L60.82 13.22Q60.45 13.89 60.20 15.11L60.20 15.11L60.20 15.11Q59.95 16.34 59.95 17.92L59.95 17.92L58.67 18.28L58.67 12.88L58.67 12.88Q58.67 12.74 58.60 12.64L58.60 12.64L58.60 12.64Q58.53 12.54 58.44 12.54L58.44 12.54L58.44 12.54Q58.16 12.54 57.78 13.22L57.78 13.22L57.78 13.22Q57.41 13.90 57.14 15.13L57.14 15.13L57.14 15.13Q56.87 16.35 56.87 17.92L56.87 17.92L55.66 18.28L55.66 12.29L55.66 12.29Q55.66 12.05 55.54 11.91L55.54 11.91L55.54 11.91Q55.43 11.77 55.24 11.77L55.24 11.77L55.24 11.77Q54.89 11.77 54.53 12.38L54.53 12.38L54.31 12.15L54.31 12.15Q54.60 11.52 55.01 11.25L55.01 11.25L55.01 11.25Q55.41 10.98 55.50 10.97L55.50 10.97L55.50 10.97Q55.59 10.96 55.78 10.96L55.78 10.96L55.78 10.96Q56.45 10.96 56.69 11.25L56.69 11.25L56.69 11.25Q56.92 11.54 56.92 12.01L56.92 12.01L56.92 14.35L56.97 14.35L56.97 14.35Q57.32 12.82 57.91 11.89L57.91 11.89L57.91 11.89Q58.51 10.96 59.09 10.96L59.09 10.96L59.09 10.96Q59.53 10.96 59.74 11.23L59.74 11.23L59.74 11.23Q59.96 11.49 59.96 12.15L59.96 12.15L59.96 14.35L60.05 14.35L60.05 14.35Q60.40 12.82 60.98 11.89L60.98 11.89L60.98 11.89Q61.56 10.96 62.15 10.96L62.15 10.96ZM69.55 11.02L69.55 11.02Q70.29 11.02 70.92 11.45L70.92 11.45L70.92 11.45Q71.55 11.87 71.92 12.61L71.92 12.61L71.92 12.61Q72.28 13.34 72.28 14.21L72.28 14.21L72.28 14.21Q72.28 15.44 71.94 16.35L71.94 16.35L71.94 16.35Q71.60 17.25 70.95 17.74L70.95 17.74L70.95 17.74Q70.31 18.23 69.44 18.23L69.44 18.23L69.44 18.23Q69.23 18.23 69.03 18.17L69.03 18.17L69.03 18.17Q68.82 18.10 68.52 17.95L68.52 17.95L68.88 17.15L68.88 17.15Q69.23 17.37 69.89 17.37L69.89 17.37L69.89 17.37Q70.48 17.37 70.85 16.60L70.85 16.60L70.85 16.60Q71.22 15.82 71.22 14.60L71.22 14.60L71.22 14.60Q71.22 13.90 70.94 13.32L70.94 13.32L70.94 13.32Q70.66 12.74 70.17 12.41L70.17 12.41L70.17 12.41Q69.68 12.08 69.08 12.08L69.08 12.08L69.08 12.08Q68.35 12.08 67.96 12.87L67.96 12.87L67.96 12.87Q67.56 13.65 67.56 15.09L67.56 15.09L67.56 22.13L66.35 22.65L66.35 12.33L66.35 12.33Q66.35 12.08 66.23 11.93L66.23 11.93L66.23 11.93Q66.12 11.77 65.94 11.77L65.94 11.77L65.94 11.77Q65.80 11.77 65.63 11.91L65.63 11.91L65.63 11.91Q65.46 12.05 65.21 12.36L65.21 12.36L65.00 12.15L65.00 12.15Q65.17 11.68 65.59 11.35L65.59 11.35L65.59 11.35Q66.01 11.02 66.43 11.02L66.43 11.02L66.43 11.02Q67.06 11.02 67.34 11.39L67.34 11.39L67.34 11.39Q67.62 11.76 67.62 12.59L67.62 12.59L67.68 12.59L67.68 12.59Q68.00 11.89 68.51 11.45L68.51 11.45L68.51 11.45Q69.02 11.02 69.55 11.02L69.55 11.02ZM75.50 6.41L75.03 9.67L74.56 9.84L73.99 6.93L75.50 6.41ZM75.49 11.14L75.49 16.91L75.49 16.91Q75.49 17.12 75.59 17.26L75.59 17.26L75.59 17.26Q75.70 17.39 75.89 17.39L75.89 17.39L75.89 17.39Q76.05 17.39 76.24 17.25L76.24 17.25L76.24 17.25Q76.43 17.11 76.62 16.84L76.62 16.84L76.85 17.05L76.85 17.05Q76.52 17.65 76.07 17.91L76.07 17.91L76.07 17.91Q75.61 18.16 75.24 18.16L75.24 18.16L75.24 18.16Q74.73 18.16 74.46 17.84L74.46 17.84L74.46 17.84Q74.19 17.51 74.19 16.74L74.19 16.74L74.19 11.65L75.49 11.14ZM80.98 10.96L81.23 11.26L81.23 11.26Q80.18 11.93 79.58 12.75L79.58 12.75L79.58 12.75Q78.97 13.58 78.97 14.70L78.97 14.70L78.97 14.70Q78.97 15.33 79.24 15.97L79.24 15.97L79.24 15.97Q79.51 16.60 80.04 17.02L80.04 17.02L80.04 17.02Q80.57 17.44 81.31 17.44L81.31 17.44L81.31 17.44Q81.91 17.44 82.38 17.16L82.38 17.16L82.38 17.16Q82.85 16.88 83.11 16.41L83.11 16.41L83.11 16.41Q83.37 15.93 83.37 15.36L83.37 15.36L83.37 15.36Q83.37 14.70 82.97 14.01L82.97 14.01L82.97 14.01Q82.57 13.33 81.93 12.85L81.93 12.85L81.93 12.85Q81.28 12.38 80.61 12.32L80.61 12.32L80.61 12.32Q80.89 12.04 81.28 11.73L81.28 11.73L81.28 11.73Q81.68 11.42 82.08 11.13L82.08 11.13L82.08 11.13Q83.05 11.45 83.61 12.36L83.61 12.36L83.61 12.36Q84.17 13.26 84.17 14.36L84.17 14.36L84.17 14.36Q84.17 15.34 83.77 16.25L83.77 16.25L83.77 16.25Q83.37 17.15 82.60 17.72L82.60 17.72L82.60 17.72Q81.83 18.28 80.78 18.28L80.78 18.28L80.78 18.28Q79.94 18.28 79.23 17.87L79.23 17.87L79.23 17.87Q78.53 17.46 78.12 16.74L78.12 16.74L78.12 16.74Q77.71 16.03 77.71 15.16L77.71 15.16L77.71 15.16Q77.71 13.64 78.62 12.52L78.62 12.52L78.62 12.52Q79.52 11.40 80.98 10.96L80.98 10.96Z"></path></g><!----><g data-v-423bf9ae="" id="7df5f88c-e11e-45b0-828f-830ae8326047" transform="matrix(2.8125,0,0,2.8125,0,0)" stroke="none" fill="black"><path d="M32 0H0v32h32V0zm-2.812 19.938H23.53C22.109 22.648 19.272 24.5 16 24.5s-6.109-1.852-7.529-4.562H2.812v-7.875H8.47C9.891 9.352 12.728 7.5 16 7.5s6.109 1.852 7.529 4.562h5.658v7.876z"></path></g><!----><g data-v-423bf9ae="" id="567cf7da-beb0-466f-9f5d-500516cb4c9e" fill="black" transform="matrix(0.8238806054194197,0,0,0.8238806054194197,109.57158565673899,57.61074612515525)"><path d="M0.52 12.39C0.52 12.63 0.55 12.68 0.74 12.68C1.06 12.68 2.03 12.64 2.45 12.64C2.87 12.64 7.22 12.68 7.55 12.68C7.81 12.68 7.88 12.66 7.90 12.49C7.95 12.08 8.19 10.72 8.19 10.60C8.19 10.47 8.04 10.44 7.87 10.43C7.77 10.42 7.69 10.46 7.67 10.56L7.50 11.76C7.46 12.05 7.45 12.03 7.22 12.04C7.07 12.05 4.56 12.12 3.14 12.12C3.09 12.12 3.05 11.38 3.05 10.54L3.05 6.66C3.05 5.40 3.07 3.70 3.16 3.70L4.14 3.70C4.38 3.70 4.41 3.63 4.41 3.44C4.41 3.23 4.40 3.19 4.16 3.19C3.84 3.19 2.90 3.23 2.48 3.23C2.06 3.23 1.12 3.19 0.90 3.19C0.67 3.19 0.62 3.22 0.62 3.44C0.62 3.65 0.66 3.70 0.85 3.70L1.68 3.70C1.72 3.70 1.75 4.23 1.75 4.90L1.75 8.13C1.75 10.07 1.72 12.18 1.64 12.18L0.80 12.18C0.57 12.18 0.52 12.21 0.52 12.39ZM15.67 12.39C15.67 12.63 15.71 12.68 15.90 12.68C16.23 12.68 16.98 12.64 17.70 12.64C18.35 12.64 19.15 12.68 19.38 12.68C19.54 12.68 19.57 12.61 19.57 12.40C19.57 12.24 19.54 12.18 19.38 12.18L18.41 12.18C18.31 12.18 18.28 9.55 18.28 7.76L18.28 5.87C18.28 5.14 18.31 3.70 18.41 3.70L19.32 3.70C19.54 3.70 19.57 3.68 19.57 3.49C19.57 3.25 19.54 3.19 19.38 3.19C19.05 3.19 18.38 3.23 17.72 3.23C16.91 3.23 16.20 3.19 15.97 3.19C15.79 3.19 15.72 3.21 15.72 3.44C15.72 3.68 15.81 3.70 15.97 3.70L16.90 3.70C16.94 3.70 17.01 4.79 17.01 5.71L17.01 7.08C17.01 8.92 17.00 12.18 16.88 12.18L15.96 12.18C15.74 12.18 15.67 12.19 15.67 12.39ZM27.40 12.39C27.40 12.63 27.43 12.68 27.62 12.68C27.86 12.68 28.36 12.64 28.78 12.64C29.20 12.64 29.69 12.68 30.02 12.68C30.18 12.68 30.21 12.61 30.21 12.40C30.21 12.24 30.18 12.18 30.02 12.18L29.05 12.18C28.99 12.18 28.98 11.54 28.98 10.79C28.98 8.96 29.02 6.13 29.09 4.28C29.12 3.88 29.15 3.91 29.29 4.27L32.55 12.32C32.65 12.54 32.72 12.74 32.83 12.74C32.93 12.74 33.00 12.63 33.08 12.45C33.42 11.79 33.60 11.75 33.87 11.09L36.46 4.47C36.58 4.16 36.62 4.02 36.64 4.47C36.67 5.66 36.71 8.47 36.71 9.74C36.71 10.99 36.67 12.18 36.61 12.18L35.98 12.18C35.76 12.18 35.69 12.19 35.69 12.39C35.69 12.63 35.71 12.68 35.91 12.68C36.11 12.68 36.81 12.64 37.41 12.64C37.83 12.64 38.58 12.68 38.91 12.68C39.07 12.68 39.10 12.61 39.10 12.40C39.10 12.22 39.05 12.18 38.88 12.18L38.15 12.18C38.04 12.18 37.94 8.44 37.94 6.03L37.94 4.77C37.94 4.17 37.97 3.77 38.01 3.70L38.67 3.70C38.89 3.70 38.93 3.68 38.93 3.49C38.93 3.25 38.92 3.19 38.72 3.19C38.40 3.19 37.72 3.23 37.30 3.23L36.62 3.23C36.40 3.23 36.37 3.29 36.26 3.58L33.52 10.72C33.43 10.95 33.40 11.02 33.29 10.74L30.35 3.40C30.28 3.22 30.23 3.19 30.09 3.19C30.00 3.19 29.51 3.23 29.20 3.23C28.70 3.23 27.85 3.19 27.65 3.19C27.51 3.19 27.51 3.26 27.51 3.47C27.51 3.64 27.51 3.70 27.65 3.70L28.35 3.70C28.62 3.70 28.62 3.72 28.62 3.84C28.62 4.82 28.41 9.94 28.36 10.79C28.32 11.55 28.32 12.18 28.27 12.18L27.69 12.18C27.47 12.18 27.40 12.19 27.40 12.39ZM47.00 3.51C47.00 3.75 47.04 3.79 47.25 3.79L48.17 3.77C48.23 3.77 48.23 4.47 48.23 5.24L48.23 5.96C48.23 7.70 48.22 12.18 48.10 12.18L47.43 12.18C47.21 12.18 47.14 12.19 47.14 12.39C47.14 12.63 47.15 12.68 47.35 12.68C47.47 12.68 48.45 12.64 48.87 12.64C49.29 12.64 50.16 12.68 50.48 12.68C50.65 12.68 50.68 12.61 50.68 12.40C50.68 12.24 50.65 12.18 50.48 12.18L49.49 12.18C49.45 12.18 49.43 10.60 49.43 9.58L49.43 8.65C49.43 8.57 49.43 8.54 49.53 8.54C49.92 8.54 50.25 8.58 50.75 8.58C52.74 8.58 54.14 7.83 54.14 6.01C54.14 4.09 52.65 3.22 50.74 3.22C50.41 3.22 49.32 3.29 48.90 3.29C48.66 3.29 47.47 3.26 47.25 3.26C47.07 3.26 47.00 3.28 47.00 3.51ZM49.45 8.05L49.45 4.40C49.45 4.05 49.46 3.70 49.50 3.68C49.63 3.67 49.80 3.67 49.94 3.67C51.59 3.67 52.85 4.47 52.85 5.80C52.85 7.57 51.52 8.19 49.94 8.19C49.69 8.19 49.45 8.16 49.45 8.05ZM61.75 12.39C61.75 12.63 61.80 12.68 61.99 12.68C62.31 12.68 63.07 12.64 63.78 12.64C64.44 12.64 65.24 12.68 65.46 12.68C65.63 12.68 65.66 12.61 65.66 12.40C65.66 12.24 65.63 12.18 65.46 12.18L64.50 12.18C64.40 12.18 64.37 9.55 64.37 7.76L64.37 5.87C64.37 5.14 64.40 3.70 64.50 3.70L65.41 3.70C65.63 3.70 65.66 3.68 65.66 3.49C65.66 3.25 65.63 3.19 65.46 3.19C65.14 3.19 64.47 3.23 63.81 3.23C63.00 3.23 62.29 3.19 62.06 3.19C61.88 3.19 61.81 3.21 61.81 3.44C61.81 3.68 61.89 3.70 62.06 3.70L62.99 3.70C63.03 3.70 63.10 4.79 63.10 5.71L63.10 7.08C63.10 8.92 63.08 12.18 62.97 12.18L62.05 12.18C61.82 12.18 61.75 12.19 61.75 12.39ZM73.56 12.39C73.56 12.63 73.58 12.68 73.78 12.68C74.10 12.68 75.07 12.64 75.49 12.64C75.91 12.64 80.42 12.68 80.74 12.68C80.86 12.68 81.02 12.66 81.02 12.49C81.02 12.07 81.06 11.23 81.06 10.53C81.06 10.39 80.91 10.39 80.78 10.39C80.67 10.39 80.54 10.39 80.54 10.51C80.53 11.06 80.53 11.41 80.50 11.76C80.47 12.01 80.47 12.04 80.37 12.04C80.22 12.04 77.59 12.08 76.09 12.08C76.02 12.08 75.98 10.11 75.94 8.26C75.94 8.06 75.98 8.09 76.12 8.09L78.40 8.09C79.10 8.09 79.13 8.20 79.13 8.30L79.13 9.00C79.13 9.14 79.31 9.14 79.42 9.14C79.52 9.14 79.65 9.13 79.65 9.02C79.65 8.83 79.62 8.33 79.62 7.83C79.62 7.32 79.65 6.83 79.65 6.71C79.65 6.59 79.51 6.58 79.41 6.58C79.30 6.58 79.13 6.59 79.13 6.72L79.13 7.45C79.13 7.62 78.68 7.63 78.40 7.63L76.06 7.63C75.95 7.63 75.94 7.63 75.94 7.45C75.92 6.75 75.91 6.06 75.91 5.46C75.91 5.12 75.91 3.71 75.99 3.71C77.22 3.71 79.73 3.75 79.73 3.81C79.73 3.99 79.69 4.83 79.69 4.89C79.69 5.04 79.76 5.10 79.94 5.10C80.14 5.10 80.21 5.08 80.21 4.94C80.21 3.85 80.26 3.36 80.26 3.09C80.26 2.91 80.18 2.90 79.98 2.90C79.79 2.90 79.79 2.95 79.76 3.11C79.74 3.25 79.81 3.25 78.90 3.25C78.29 3.25 76.15 3.29 75.38 3.29C74.89 3.29 73.95 3.25 73.85 3.25C73.72 3.25 73.67 3.30 73.67 3.49C73.67 3.72 73.74 3.74 73.91 3.74L74.56 3.74C74.62 3.74 74.69 4.79 74.69 5.71C74.69 5.80 74.75 8.27 74.75 9.83L74.75 11.17C74.75 11.84 74.72 12.18 74.69 12.18L73.84 12.18C73.61 12.18 73.56 12.21 73.56 12.39ZM89.03 12.39C89.03 12.59 89.05 12.64 89.18 12.64C90.64 12.64 94.70 12.68 96.26 12.68C96.39 12.68 96.50 12.66 96.50 12.49C96.50 12.07 96.54 11.21 96.54 10.51C96.54 10.37 96.39 10.37 96.26 10.37C96.17 10.37 95.97 10.39 95.97 10.50C95.96 11.05 95.96 11.41 95.93 11.76C95.90 12.01 95.94 12.04 95.84 12.04L91.08 12.04C90.92 12.04 90.97 11.91 91.07 11.77C93.06 8.37 96.38 3.81 96.38 3.56C96.38 3.35 96.33 3.30 96.15 3.30L90.76 3.30C89.99 3.30 89.98 3.26 89.98 3.22L89.99 3.11C90.01 3.01 89.80 3.00 89.68 3.00C89.49 3.00 89.50 3.05 89.49 3.12C89.36 4.06 89.18 5.11 89.18 5.15C89.18 5.26 89.52 5.29 89.59 5.29C89.71 5.29 89.71 5.19 89.74 5.04C89.75 4.98 89.87 4.27 89.92 3.95C89.94 3.85 89.94 3.84 89.99 3.84L94.36 3.84C94.47 3.84 94.51 3.85 94.51 3.88C94.51 3.89 94.51 3.92 94.49 3.95C92.32 7.38 89.03 12.18 89.03 12.39ZM104.30 12.39C104.30 12.63 104.30 12.68 104.50 12.68C104.66 12.68 104.99 12.64 105.56 12.64C106.18 12.64 106.72 12.68 106.88 12.68C107.04 12.68 107.04 12.61 107.04 12.40C107.04 12.24 107.04 12.18 106.88 12.18L105.80 12.18C105.80 12.18 105.78 12.18 105.78 12.17C105.80 11.87 106.57 9.90 106.92 9.02C106.99 8.83 107.00 8.79 107.21 8.79L110.04 8.79C110.18 8.79 110.18 8.81 110.25 9.03C110.52 9.77 111.23 11.89 111.23 12.17C111.23 12.18 111.22 12.18 111.22 12.18L110.45 12.18C110.22 12.18 110.21 12.19 110.21 12.39C110.21 12.63 110.22 12.68 110.39 12.68C110.71 12.68 111.58 12.64 112.00 12.64C112.42 12.64 113.09 12.68 113.30 12.68C113.44 12.68 113.46 12.61 113.46 12.40C113.46 12.24 113.44 12.18 113.30 12.18L112.81 12.18C112.71 12.18 111.69 9.34 111.13 7.78L109.45 3.07C109.44 3.00 109.37 2.94 109.28 2.94C109.16 2.94 109.06 3.16 108.98 3.35C108.82 3.71 108.58 3.84 108.47 4.13L106.99 7.57C106.81 8.01 105.10 12.18 104.97 12.18L104.55 12.18C104.33 12.18 104.30 12.19 104.30 12.39ZM107.20 8.33C107.20 8.30 107.23 8.23 107.27 8.13L108.64 4.77C108.68 4.66 108.71 4.61 108.74 4.61C108.75 4.61 108.77 4.63 108.81 4.77L109.97 8.18C110.00 8.25 110.01 8.29 110.01 8.32C110.01 8.36 109.98 8.37 109.89 8.37L107.38 8.37C107.20 8.37 107.20 8.34 107.20 8.33ZM130.87 12.39C130.87 12.63 130.91 12.68 131.11 12.68C131.43 12.68 132.19 12.64 132.90 12.64C133.56 12.64 134.36 12.68 134.58 12.68C134.75 12.68 134.78 12.61 134.78 12.40C134.78 12.24 134.75 12.18 134.58 12.18L133.62 12.18C133.52 12.18 133.49 9.55 133.49 7.76L133.49 5.87C133.49 5.14 133.52 3.70 133.62 3.70L134.53 3.70C134.75 3.70 134.78 3.68 134.78 3.49C134.78 3.25 134.75 3.19 134.58 3.19C134.26 3.19 133.59 3.23 132.93 3.23C132.12 3.23 131.40 3.19 131.18 3.19C131.00 3.19 130.93 3.21 130.93 3.44C130.93 3.68 131.01 3.70 131.18 3.70L132.10 3.70C132.15 3.70 132.22 4.79 132.22 5.71L132.22 7.08C132.22 8.92 132.20 12.18 132.09 12.18L131.17 12.18C130.94 12.18 130.87 12.19 130.87 12.39ZM142.67 12.39C142.67 12.63 142.69 12.68 142.88 12.68C143.07 12.68 143.44 12.64 144.06 12.64C144.69 12.64 145.25 12.68 145.57 12.68C145.74 12.68 145.74 12.61 145.74 12.40C145.74 12.24 145.74 12.18 145.57 12.18L144.37 12.18C144.33 12.18 144.31 11.54 144.31 10.79C144.31 9.46 144.33 7.48 144.33 5.99C144.33 5.25 144.33 4.84 144.34 4.28C144.34 4.02 144.41 4.14 144.54 4.28L151.42 12.66C151.51 12.75 151.59 12.89 151.70 12.89C151.82 12.89 151.89 12.77 151.89 12.54C151.89 12.39 152.05 6.65 152.07 4.48C152.07 4.06 152.10 3.70 152.12 3.70L152.75 3.70C152.98 3.70 153.03 3.68 153.03 3.49C153.03 3.25 153.03 3.19 152.84 3.19C152.64 3.19 152.21 3.23 151.65 3.23C151.03 3.23 150.23 3.19 150.14 3.19C149.97 3.19 149.97 3.26 149.97 3.47C149.97 3.64 149.97 3.70 150.14 3.70L151.44 3.70C151.45 3.70 151.45 4.33 151.45 4.44C151.45 5.85 151.48 8.33 151.48 9.70L151.48 10.29C151.48 10.57 151.47 10.65 151.24 10.37L145.56 3.39C145.45 3.25 145.42 3.19 145.25 3.19C145.17 3.19 144.79 3.23 144.48 3.23C144.19 3.23 143.11 3.19 142.91 3.19C142.74 3.19 142.72 3.26 142.72 3.47C142.72 3.64 142.74 3.70 142.91 3.70L143.82 3.70C143.82 4.17 143.78 8.53 143.71 10.79C143.68 11.69 143.70 12.18 143.58 12.18L142.94 12.18C142.72 12.18 142.67 12.19 142.67 12.39ZM161.00 12.46C161.00 12.63 161.01 12.70 161.20 12.70C161.35 12.70 162.58 12.64 162.97 12.64C163.83 12.64 164.71 12.70 165.56 12.70C168.18 12.70 170.58 11.07 170.58 7.91C170.58 4.89 168.24 3.07 165.20 3.07C164.64 3.07 163.38 3.23 162.34 3.23C161.87 3.23 161.41 3.22 161.35 3.22C161.17 3.22 161.15 3.32 161.15 3.49C161.15 3.68 161.22 3.70 161.35 3.70L162.32 3.67C162.34 3.67 162.34 4.20 162.34 4.72C162.34 5.91 162.26 12.21 162.18 12.21L161.28 12.21C161.10 12.21 161.00 12.22 161.00 12.46ZM163.58 11.40C163.58 9.46 163.58 7.52 163.59 5.60C163.59 5.03 163.63 3.61 163.67 3.60C163.97 3.53 164.56 3.51 164.91 3.51C167.47 3.51 169.08 5.75 169.08 7.73C169.08 8.95 169.04 12.25 164.36 12.25C164.09 12.25 163.69 12.25 163.59 12.21C163.58 12.19 163.58 11.79 163.58 11.40ZM178.68 3.51C178.68 3.75 178.77 3.77 178.93 3.77L179.47 3.77C179.52 3.77 179.52 4.12 179.52 4.55C179.52 5.66 179.51 8.96 179.51 9.42C179.51 11.13 179.76 12.80 182.62 12.80C183.69 12.80 184.86 12.38 185.51 12.00C185.77 11.86 186.06 11.72 186.14 11.72C186.41 11.72 186.68 12.74 187.01 12.74C187.33 12.74 187.35 12.35 187.35 12.25C187.35 11.96 187.40 10.08 187.45 8.16C187.50 6.12 187.49 3.77 187.60 3.77L187.92 3.77C188.15 3.77 188.22 3.75 188.22 3.56C188.22 3.32 188.17 3.26 187.98 3.26C187.84 3.26 187.31 3.30 186.89 3.30C186.47 3.30 185.67 3.26 185.44 3.26C185.26 3.26 185.16 3.28 185.16 3.51C185.16 3.75 185.28 3.77 185.44 3.77L186.14 3.77C186.21 3.77 186.23 4.30 186.23 4.87L186.23 9.14C186.23 11.19 186.23 11.12 185.89 11.34C185.50 11.61 184.69 12.08 183.51 12.08C181.54 12.08 180.74 11.17 180.74 9.41C180.74 8.82 180.81 3.77 180.92 3.77L181.83 3.77C182.06 3.77 182.10 3.75 182.10 3.56C182.10 3.32 182.08 3.26 181.89 3.26C181.57 3.26 180.68 3.30 180.26 3.30C179.84 3.30 179.16 3.26 178.93 3.26C178.75 3.26 178.68 3.28 178.68 3.51ZM196.46 5.77C196.46 9.07 201.45 8.20 201.45 10.65C201.45 11.59 200.61 12.31 199.63 12.31C198.80 12.31 197.20 11.83 197.18 11.47L197.09 10.15C197.08 9.97 197.01 9.91 196.83 9.91L196.76 9.91C196.55 9.91 196.55 10.00 196.55 10.12C196.55 10.32 196.66 11.66 196.69 12.17C196.70 12.38 197.96 12.85 199.50 12.85C201.07 12.85 202.68 11.87 202.68 10.11C202.68 6.79 197.71 7.87 197.71 5.32C197.71 4.31 198.49 3.56 199.53 3.56C200.55 3.56 201.64 4.58 201.64 4.89C201.64 5.01 201.60 5.73 201.60 5.78C201.60 5.92 201.64 5.99 201.91 5.99C202.15 5.99 202.16 5.94 202.16 5.75C202.16 5.04 202.24 3.68 202.24 3.53C202.24 3.30 202.20 3.29 201.94 3.29C201.71 3.29 201.70 3.32 201.68 3.53C201.68 3.61 201.67 3.78 201.63 3.78C201.57 3.78 201.49 3.74 201.42 3.68C200.62 3.14 200.00 3.08 199.50 3.08C197.97 3.08 196.46 4.17 196.46 5.77ZM210.24 5.01C210.24 5.17 210.42 5.17 210.55 5.17C210.70 5.17 210.74 5.15 210.76 4.97L210.87 3.89C210.88 3.81 211.43 3.75 212.18 3.75L214.17 3.75C214.23 3.75 214.26 4.35 214.26 4.97C214.26 6.43 214.20 12.18 214.07 12.18L213.21 12.18C212.98 12.18 212.94 12.19 212.94 12.39C212.94 12.63 212.95 12.68 213.15 12.68C213.47 12.68 214.45 12.64 214.87 12.64C215.29 12.64 216.23 12.68 216.55 12.68C216.72 12.68 216.75 12.61 216.75 12.40C216.75 12.24 216.72 12.18 216.55 12.18L215.56 12.18C215.53 12.18 215.53 11.76 215.53 11.31C215.53 9.56 215.61 5.96 215.61 5.92C215.63 5.18 215.63 3.75 215.73 3.75L217.34 3.75C218.05 3.75 218.88 3.78 218.88 3.85C218.88 3.99 218.83 4.90 218.83 4.97C218.83 5.12 218.90 5.17 219.09 5.17C219.28 5.17 219.35 5.17 219.35 5.03C219.35 3.93 219.41 3.40 219.41 3.14C219.41 2.94 219.32 2.94 219.13 2.94C218.97 2.94 218.92 2.98 218.90 3.16C218.90 3.23 218.26 3.28 217.42 3.28L212.42 3.28C211.76 3.28 210.95 3.28 210.95 3.21L210.95 3.07C210.95 2.94 210.83 2.94 210.73 2.94C210.50 2.94 210.48 3.00 210.46 3.19C210.41 3.89 210.24 4.97 210.24 5.01ZM227.16 3.51C227.16 3.72 227.23 3.79 227.43 3.79L228.24 3.77C228.34 3.77 228.38 6.61 228.38 8.55L228.38 10.42C228.38 11.30 228.37 12.18 228.33 12.18L227.72 12.18C227.50 12.18 227.43 12.19 227.43 12.39C227.43 12.63 227.47 12.68 227.67 12.68C227.79 12.68 228.62 12.64 229.04 12.64C229.46 12.64 230.23 12.68 230.55 12.68C230.72 12.68 230.75 12.61 230.75 12.40C230.75 12.24 230.72 12.18 230.55 12.18L229.74 12.18C229.67 12.18 229.59 9.18 229.59 8.37C229.59 8.30 229.59 8.26 229.70 8.26C230.09 8.26 230.69 8.27 230.99 8.27C233.23 8.32 233.37 10.00 233.37 11.68L233.37 12.49C233.37 12.61 233.42 12.64 233.52 12.64C233.52 12.64 234.96 12.68 235.44 12.68C235.61 12.68 235.66 12.64 235.66 12.53C235.66 12.24 235.61 12.18 235.45 12.18L234.81 12.18C234.71 12.18 234.68 12.14 234.65 11.31C234.57 8.99 233.20 8.34 232.29 8.05C232.15 8.01 232.18 8.01 232.29 7.95C232.88 7.69 234.19 6.94 234.19 5.63C234.19 3.63 232.50 3.21 231.10 3.21C230.78 3.21 229.49 3.29 229.07 3.29C228.65 3.29 227.67 3.26 227.44 3.26C227.26 3.26 227.16 3.28 227.16 3.51ZM229.59 7.80L229.59 4.40C229.59 4.05 229.61 3.68 229.66 3.68C229.87 3.65 230.15 3.65 230.37 3.65C231.67 3.65 232.92 4.47 232.92 5.82C232.92 6.99 232.37 7.57 231.71 7.88C231.67 7.90 231.63 7.90 231.56 7.90C231.08 7.88 230.37 7.88 229.77 7.87C229.60 7.87 229.59 7.85 229.59 7.80ZM243.00 12.39C243.00 12.63 243.04 12.68 243.24 12.68C243.56 12.68 244.31 12.64 245.03 12.64C245.69 12.64 246.48 12.68 246.71 12.68C246.88 12.68 246.90 12.61 246.90 12.40C246.90 12.24 246.88 12.18 246.71 12.18L245.74 12.18C245.64 12.18 245.62 9.55 245.62 7.76L245.62 5.87C245.62 5.14 245.64 3.70 245.74 3.70L246.65 3.70C246.88 3.70 246.90 3.68 246.90 3.49C246.90 3.25 246.88 3.19 246.71 3.19C246.39 3.19 245.71 3.23 245.06 3.23C244.24 3.23 243.53 3.19 243.31 3.19C243.12 3.19 243.05 3.21 243.05 3.44C243.05 3.68 243.14 3.70 243.31 3.70L244.23 3.70C244.27 3.70 244.34 4.79 244.34 5.71L244.34 7.08C244.34 8.92 244.33 12.18 244.22 12.18L243.29 12.18C243.07 12.18 243.00 12.19 243.00 12.39ZM254.66 12.39C254.66 12.63 254.66 12.68 254.86 12.68C255.02 12.68 255.35 12.64 255.92 12.64C256.54 12.64 257.08 12.68 257.24 12.68C257.40 12.68 257.40 12.61 257.40 12.40C257.40 12.24 257.40 12.18 257.24 12.18L256.16 12.18C256.16 12.18 256.14 12.18 256.14 12.17C256.16 11.87 256.93 9.90 257.28 9.02C257.35 8.83 257.36 8.79 257.57 8.79L260.40 8.79C260.54 8.79 260.54 8.81 260.61 9.03C260.88 9.77 261.59 11.89 261.59 12.17C261.59 12.18 261.58 12.18 261.58 12.18L260.81 12.18C260.58 12.18 260.57 12.19 260.57 12.39C260.57 12.63 260.58 12.68 260.75 12.68C261.07 12.68 261.94 12.64 262.36 12.64C262.78 12.64 263.45 12.68 263.66 12.68C263.80 12.68 263.82 12.61 263.82 12.40C263.82 12.24 263.80 12.18 263.66 12.18L263.17 12.18C263.07 12.18 262.05 9.34 261.49 7.78L259.81 3.07C259.80 3.00 259.73 2.94 259.64 2.94C259.52 2.94 259.42 3.16 259.34 3.35C259.18 3.71 258.94 3.84 258.83 4.13L257.35 7.57C257.17 8.01 255.46 12.18 255.33 12.18L254.91 12.18C254.69 12.18 254.66 12.19 254.66 12.39ZM257.56 8.33C257.56 8.30 257.59 8.23 257.63 8.13L259 4.77C259.04 4.66 259.07 4.61 259.10 4.61C259.11 4.61 259.13 4.63 259.17 4.77L260.33 8.18C260.36 8.25 260.37 8.29 260.37 8.32C260.37 8.36 260.34 8.37 260.25 8.37L257.74 8.37C257.56 8.37 257.56 8.34 257.56 8.33ZM271.57 12.39C271.57 12.63 271.60 12.68 271.80 12.68C272.12 12.68 273.08 12.64 273.50 12.64C273.92 12.64 278.28 12.68 278.60 12.68C278.87 12.68 278.94 12.66 278.95 12.49C279.01 12.08 279.24 10.72 279.24 10.60C279.24 10.47 279.09 10.44 278.92 10.43C278.82 10.42 278.74 10.46 278.73 10.56L278.56 11.76C278.52 12.05 278.50 12.03 278.28 12.04C278.12 12.05 275.62 12.12 274.19 12.12C274.15 12.12 274.11 11.38 274.11 10.54L274.11 6.66C274.11 5.40 274.12 3.70 274.22 3.70L275.20 3.70C275.44 3.70 275.46 3.63 275.46 3.44C275.46 3.23 275.45 3.19 275.21 3.19C274.89 3.19 273.95 3.23 273.53 3.23C273.11 3.23 272.17 3.19 271.95 3.19C271.73 3.19 271.67 3.22 271.67 3.44C271.67 3.65 271.71 3.70 271.91 3.70L272.73 3.70C272.78 3.70 272.80 4.23 272.80 4.90L272.80 8.13C272.80 10.07 272.78 12.18 272.69 12.18L271.85 12.18C271.63 12.18 271.57 12.21 271.57 12.39Z"></path></g></svg>