<svg data-v-fde0c5aa="" xmlns="http://www.w3.org/2000/svg" viewBox="0 0 300 300" class="font"><!----><defs data-v-fde0c5aa=""><!----></defs><rect data-v-fde0c5aa="" fill="#FAF1EE" x="0" y="0" width="300px" height="300px" class="logo-background-square"></rect><defs data-v-fde0c5aa=""><linearGradient data-v-fde0c5aa="" gradientTransform="rotate(25)" id="efd7f721-ccad-4923-a568-54bfce07f745" x1="0%" y1="0%" x2="100%" y2="0%"><stop data-v-fde0c5aa="" offset="0%" stop-color="#B82949" stop-opacity="1"></stop><stop data-v-fde0c5aa="" offset="100%" stop-color="#E9B84C" stop-opacity="1"></stop></linearGradient></defs><g data-v-fde0c5aa="" id="505e4842-8bfc-430b-8fac-7e8ee1435809" fill="url(#efd7f721-ccad-4923-a568-54bfce07f745)" transform="matrix(2.6278069373175805,0,0,2.6278069373175805,38.817486831218254,113.47348332067844)"><path d="M8.29 10.96L8.29 10.96Q8.71 10.96 8.94 11.24L8.94 11.24L8.94 11.24Q9.17 11.51 9.17 12.15L9.17 12.15L9.17 16.91L9.17 16.91Q9.17 17.12 9.27 17.26L9.27 17.26L9.27 17.26Q9.37 17.39 9.53 17.39L9.53 17.39L9.53 17.39Q9.70 17.39 9.90 17.25L9.90 17.25L9.90 17.25Q10.09 17.11 10.28 16.84L10.28 16.84L10.50 17.05L10.50 17.05Q10.21 17.68 9.80 17.93L9.80 17.93L9.80 17.93Q9.39 18.17 9.65 18.17L9.65 18.17L9.65 18.17Q9.90 18.16 9.04 18.16L9.04 18.16L9.04 18.16Q7.88 18.16 7.88 16.74L7.88 16.74L7.88 12.88L7.88 12.88Q7.88 12.74 7.81 12.64L7.81 12.64L7.81 12.64Q7.74 12.54 7.63 12.54L7.63 12.54L7.63 12.54Q7.32 12.54 6.96 13.22L6.96 13.22L6.96 13.22Q6.59 13.89 6.34 15.11L6.34 15.11L6.34 15.11Q6.09 16.34 6.09 17.92L6.09 17.92L4.82 18.28L4.82 12.88L4.82 12.88Q4.82 12.74 4.75 12.64L4.75 12.64L4.75 12.64Q4.68 12.54 4.58 12.54L4.58 12.54L4.58 12.54Q4.30 12.54 3.93 13.22L3.93 13.22L3.93 13.22Q3.56 13.90 3.28 15.13L3.28 15.13L3.28 15.13Q3.01 16.35 3.01 17.92L3.01 17.92L1.81 18.28L1.81 12.29L1.81 12.29Q1.81 12.05 1.69 11.91L1.69 11.91L1.69 11.91Q1.57 11.77 1.39 11.77L1.39 11.77L1.39 11.77Q1.04 11.77 0.67 12.38L0.67 12.38L0.45 12.15L0.45 12.15Q0.74 11.52 1.15 11.25L1.15 11.25L1.15 11.25Q1.55 10.98 1.65 10.97L1.65 10.97L1.65 10.97Q1.74 10.96 1.92 10.96L1.92 10.96L1.92 10.96Q2.59 10.96 2.83 11.25L2.83 11.25L2.83 11.25Q3.07 11.54 3.07 12.01L3.07 12.01L3.07 14.35L3.11 14.35L3.11 14.35Q3.46 12.82 4.05 11.89L4.05 11.89L4.05 11.89Q4.65 10.96 5.24 10.96L5.24 10.96L5.24 10.96Q5.67 10.96 5.89 11.23L5.89 11.23L5.89 11.23Q6.10 11.49 6.10 12.15L6.10 12.15L6.10 14.35L6.19 14.35L6.19 14.35Q6.54 12.82 7.12 11.89L7.12 11.89L7.12 11.89Q7.70 10.96 8.29 10.96L8.29 10.96ZM15.29 11.09L15.29 11.09Q15.97 11.09 16.58 11.38L16.58 11.38L16.58 11.38Q17.19 11.68 17.47 12.28L17.47 12.28L16.46 12.82L16.46 12.82Q16.24 12.50 15.85 12.24L15.85 12.24L15.85 12.24Q15.46 11.98 15.01 11.98L15.01 11.98L15.01 11.98Q14.29 11.98 13.76 12.36L13.76 12.36L13.76 12.36Q13.23 12.73 12.95 13.36L12.95 13.36L12.95 13.36Q12.67 13.99 12.67 14.76L12.67 14.76L12.67 14.76Q12.67 15.86 13.05 16.55L13.05 16.55L13.05 16.55Q13.43 17.25 14.24 17.25L14.24 17.25L14.24 17.25Q15.39 17.25 15.82 16.32L15.82 16.32L15.82 16.32Q16.25 15.40 16.25 14.31L16.25 14.31L16.25 13.68L17.49 13.16L17.49 16.84L17.49 16.84Q17.49 17.02 17.58 17.19L17.58 17.19L17.58 17.19Q17.68 17.36 17.88 17.36L17.88 17.36L17.88 17.36Q18.28 17.36 18.62 16.80L18.62 16.80L18.83 17.02L18.83 17.02Q18.66 17.50 18.24 17.83L18.24 17.83L18.24 17.83Q17.82 18.16 17.40 18.16L17.40 18.16L17.40 18.16Q16.80 18.16 16.51 17.71L16.51 17.71L16.51 17.71Q16.23 17.26 16.23 16.52L16.23 16.52L16.20 16.52L16.20 16.52Q15.85 17.26 15.25 17.76L15.25 17.76L15.25 17.76Q14.66 18.26 14 18.26L14 18.26L14 18.26Q12.81 18.26 12.20 17.44L12.20 17.44L12.20 17.44Q11.59 16.62 11.59 15.25L11.59 15.25L11.59 15.25Q11.59 14.15 12.08 13.20L12.08 13.20L12.08 13.20Q12.57 12.24 13.42 11.66L13.42 11.66L13.42 11.66Q14.27 11.09 15.29 11.09L15.29 11.09ZM21.69 10.51L21.69 10.51Q22.16 10.51 22.38 10.68L22.38 10.68L22.38 10.68Q22.60 10.85 22.60 11.20L22.60 11.20L22.60 11.20Q22.60 11.58 22.45 11.87L22.45 11.87L22.45 11.87Q22.30 12.17 22.13 12.38L22.13 12.38L22.13 12.38Q21.97 12.59 21.91 12.67L21.91 12.67L21.91 12.67Q22.08 12.95 22.54 13.33L22.54 13.33L22.54 13.33Q22.92 13.65 23.14 13.90L23.14 13.90L23.14 13.90Q23.37 14.15 23.53 14.58L23.53 14.58L23.53 14.58Q23.69 15.01 23.69 15.62L23.69 15.62L23.69 15.62Q23.69 16.35 23.36 16.95L23.36 16.95L23.36 16.95Q23.03 17.56 22.45 17.91L22.45 17.91L22.45 17.91Q21.87 18.26 21.14 18.26L21.14 18.26L21.14 18.26Q20.69 18.26 20.16 18.07L20.16 18.07L20.16 18.07Q19.63 17.88 19.38 17.53L19.38 17.53L20.31 16.28L20.31 16.28Q20.65 16.72 21.02 17.02L21.02 17.02L21.02 17.02Q21.39 17.33 21.83 17.33L21.83 17.33L21.83 17.33Q22.43 17.33 22.86 16.93L22.86 16.93L22.86 16.93Q23.28 16.53 23.28 15.97L23.28 15.97L23.28 15.97Q23.28 15.53 22.91 15.09L22.91 15.09L22.91 15.09Q22.54 14.64 21.87 14.04L21.87 14.04L21.87 14.04Q21.78 13.97 21.55 13.76L21.55 13.76L21.55 13.76Q21.31 13.54 21.20 13.40L21.20 13.40L20.22 14.84L19.77 14.55L20.89 12.99L20.89 12.99Q20.69 12.45 20.69 11.91L20.69 11.91L20.69 11.91Q20.69 11.31 20.96 10.91L20.96 10.91L20.96 10.91Q21.22 10.51 21.69 10.51L21.69 10.51ZM21.69 11.06L21.69 11.06Q21.50 11.06 21.46 11.16L21.46 11.16L21.46 11.16Q21.41 11.26 21.41 11.45L21.41 11.45L21.41 11.45Q21.41 11.70 21.48 11.89L21.48 11.89L21.48 11.89Q21.55 12.07 21.57 12.14L21.57 12.14L21.57 12.14Q21.73 12.04 21.86 11.78L21.86 11.78L21.86 11.78Q21.99 11.52 21.99 11.34L21.99 11.34L21.99 11.34Q21.99 11.21 21.92 11.14L21.92 11.14L21.92 11.14Q21.84 11.06 21.69 11.06L21.69 11.06ZM26.96 7.36L26.96 11.09L28.91 11.09L28.49 11.98L26.96 11.98L26.96 16.91L26.96 16.91Q26.96 17.12 27.09 17.26L27.09 17.26L27.09 17.26Q27.22 17.39 27.43 17.39L27.43 17.39L27.43 17.39Q27.72 17.39 28.24 16.84L28.24 16.84L28.43 17.05L28.43 17.05Q28.17 17.58 27.80 17.84L27.80 17.84L27.80 17.84Q27.43 18.10 27.10 18.17L27.10 18.17L27.10 18.17Q26.77 18.23 26.77 18.17L26.77 18.17L26.77 18.17Q26.78 18.17 26.81 18.17L26.81 18.17L26.81 18.17Q26.84 18.16 26.89 18.16L26.89 18.16L26.89 18.16Q25.66 18.16 25.66 16.74L25.66 16.74L25.66 11.98L24.61 11.98L25.05 11.09L25.66 11.09L25.66 7.87L26.96 7.36ZM33.67 10.96L33.67 10.96Q34.43 10.96 34.93 11.37L34.93 11.37L34.93 11.37Q35.43 11.77 35.43 12.57L35.43 12.57L35.43 12.57Q35.43 13.22 34.74 14.01L34.74 14.01L34.74 14.01Q34.05 14.80 33.12 15.46L33.12 15.46L33.12 15.46Q32.19 16.11 31.53 16.38L31.53 16.38L31.53 16.38Q31.88 16.94 32.33 17.16L32.33 17.16L32.33 17.16Q32.77 17.37 33.38 17.37L33.38 17.37L33.38 17.37Q34.05 17.37 34.71 17.03L34.71 17.03L34.71 17.03Q35.38 16.69 35.81 16.14L35.81 16.14L35.98 16.44L35.98 16.44Q35.29 17.32 34.52 17.79L34.52 17.79L34.52 17.79Q33.75 18.26 32.63 18.26L32.63 18.26L32.63 18.26Q31.78 18.26 31.11 17.84L31.11 17.84L31.11 17.84Q30.44 17.42 30.06 16.71L30.06 16.71L30.06 16.71Q29.68 16.00 29.68 15.18L29.68 15.18L29.68 15.18Q29.68 14.14 30.24 13.16L30.24 13.16L30.24 13.16Q30.80 12.18 31.72 11.57L31.72 11.57L31.72 11.57Q32.65 10.96 33.67 10.96L33.67 10.96ZM32.94 11.84L32.94 11.84Q32.33 11.84 31.84 12.24L31.84 12.24L31.84 12.24Q31.36 12.63 31.09 13.24L31.09 13.24L31.09 13.24Q30.81 13.86 30.81 14.52L30.81 14.52L30.81 14.52Q30.81 15.39 31.22 16.00L31.22 16.00L31.22 16.00Q31.81 15.74 32.49 15.20L32.49 15.20L32.49 15.20Q33.18 14.66 33.66 14.03L33.66 14.03L33.66 14.03Q34.13 13.40 34.13 12.88L34.13 12.88L34.13 12.88Q34.13 11.84 32.94 11.84L32.94 11.84ZM40.22 12.80L40.22 12.80Q39.59 13.45 39.14 14.51L39.14 14.51L39.14 14.51Q38.68 15.57 38.68 16.44L38.68 16.44L38.68 16.44Q38.68 17.19 39.01 17.70L39.01 17.70L39.01 17.70Q39.34 18.21 40.07 18.21L40.07 18.21L40.07 18.21Q40.66 18.21 41.20 17.91L41.20 17.91L41.20 17.91Q41.73 17.60 42.11 17.11L42.11 17.11L41.96 16.90L41.96 16.90Q41.52 17.19 41.10 17.19L41.10 17.19L41.10 17.19Q40.45 17.19 40.11 16.73L40.11 16.73L40.11 16.73Q39.77 16.27 39.77 15.61L39.77 15.61L39.77 15.61Q39.77 14.55 40.32 13.59L40.32 13.59L40.32 13.59Q40.87 12.64 41.71 11.75L41.71 11.75L41.48 11.55L41.48 11.55Q40.50 12.17 39.69 12.17L39.69 12.17L39.69 12.17Q39.21 12.17 38.82 11.74L38.82 11.74L38.82 11.74Q38.43 11.31 38.22 10.79L38.22 10.79L37.09 12.07L37.09 12.07Q37.18 12.35 37.62 12.71L37.62 12.71L36.68 14.67L37.20 14.91L38.11 12.91L38.11 12.91Q38.35 13.01 38.50 13.03L38.50 13.03L38.50 13.03Q38.65 13.06 38.92 13.06L38.92 13.06L38.92 13.06Q39.61 13.06 40.18 12.75L40.18 12.75L40.22 12.80ZM48.08 5.15L48.08 16.91L48.08 16.91Q48.08 17.08 48.17 17.23L48.17 17.23L48.17 17.23Q48.27 17.39 48.51 17.39L48.51 17.39L48.51 17.39Q48.71 17.39 48.92 17.21L48.92 17.21L48.92 17.21Q49.14 17.04 49.25 16.84L49.25 16.84L49.49 17.05L49.49 17.05Q49.25 17.51 48.83 17.84L48.83 17.84L48.83 17.84Q48.41 18.16 47.99 18.16L47.99 18.16L47.99 18.16Q46.82 18.16 46.82 16.74L46.82 16.74L46.82 5.68L48.08 5.15ZM52.28 6.41L51.80 9.67L51.34 9.84L50.76 6.93L52.28 6.41ZM52.26 11.14L52.26 16.91L52.26 16.91Q52.26 17.12 52.37 17.26L52.37 17.26L52.37 17.26Q52.47 17.39 52.67 17.39L52.67 17.39L52.67 17.39Q52.82 17.39 53.01 17.25L53.01 17.25L53.01 17.25Q53.20 17.11 53.40 16.84L53.40 16.84L53.62 17.05L53.62 17.05Q53.30 17.65 52.84 17.91L52.84 17.91L52.84 17.91Q52.39 18.16 52.01 18.16L52.01 18.16L52.01 18.16Q51.51 18.16 51.23 17.84L51.23 17.84L51.23 17.84Q50.96 17.51 50.96 16.74L50.96 16.74L50.96 11.65L52.26 11.14ZM62.15 10.96L62.15 10.96Q62.57 10.96 62.80 11.24L62.80 11.24L62.80 11.24Q63.03 11.51 63.03 12.15L63.03 12.15L63.03 16.91L63.03 16.91Q63.03 17.12 63.13 17.26L63.13 17.26L63.13 17.26Q63.22 17.39 63.39 17.39L63.39 17.39L63.39 17.39Q63.56 17.39 63.76 17.25L63.76 17.25L63.76 17.25Q63.95 17.11 64.13 16.84L64.13 16.84L64.36 17.05L64.36 17.05Q64.06 17.68 63.66 17.93L63.66 17.93L63.66 17.93Q63.25 18.17 63.50 18.17L63.50 18.17L63.50 18.17Q63.76 18.16 62.90 18.16L62.90 18.16L62.90 18.16Q61.74 18.16 61.74 16.74L61.74 16.74L61.74 12.88L61.74 12.88Q61.74 12.74 61.67 12.64L61.67 12.64L61.67 12.64Q61.60 12.54 61.49 12.54L61.49 12.54L61.49 12.54Q61.18 12.54 60.82 13.22L60.82 13.22L60.82 13.22Q60.45 13.89 60.20 15.11L60.20 15.11L60.20 15.11Q59.95 16.34 59.95 17.92L59.95 17.92L58.67 18.28L58.67 12.88L58.67 12.88Q58.67 12.74 58.60 12.64L58.60 12.64L58.60 12.64Q58.53 12.54 58.44 12.54L58.44 12.54L58.44 12.54Q58.16 12.54 57.78 13.22L57.78 13.22L57.78 13.22Q57.41 13.90 57.14 15.13L57.14 15.13L57.14 15.13Q56.87 16.35 56.87 17.92L56.87 17.92L55.66 18.28L55.66 12.29L55.66 12.29Q55.66 12.05 55.54 11.91L55.54 11.91L55.54 11.91Q55.43 11.77 55.24 11.77L55.24 11.77L55.24 11.77Q54.89 11.77 54.53 12.38L54.53 12.38L54.31 12.15L54.31 12.15Q54.60 11.52 55.01 11.25L55.01 11.25L55.01 11.25Q55.41 10.98 55.50 10.97L55.50 10.97L55.50 10.97Q55.59 10.96 55.78 10.96L55.78 10.96L55.78 10.96Q56.45 10.96 56.69 11.25L56.69 11.25L56.69 11.25Q56.92 11.54 56.92 12.01L56.92 12.01L56.92 14.35L56.97 14.35L56.97 14.35Q57.32 12.82 57.91 11.89L57.91 11.89L57.91 11.89Q58.51 10.96 59.09 10.96L59.09 10.96L59.09 10.96Q59.53 10.96 59.74 11.23L59.74 11.23L59.74 11.23Q59.96 11.49 59.96 12.15L59.96 12.15L59.96 14.35L60.05 14.35L60.05 14.35Q60.40 12.82 60.98 11.89L60.98 11.89L60.98 11.89Q61.56 10.96 62.15 10.96L62.15 10.96ZM69.55 11.02L69.55 11.02Q70.29 11.02 70.92 11.45L70.92 11.45L70.92 11.45Q71.55 11.87 71.92 12.61L71.92 12.61L71.92 12.61Q72.28 13.34 72.28 14.21L72.28 14.21L72.28 14.21Q72.28 15.44 71.94 16.35L71.94 16.35L71.94 16.35Q71.60 17.25 70.95 17.74L70.95 17.74L70.95 17.74Q70.31 18.23 69.44 18.23L69.44 18.23L69.44 18.23Q69.23 18.23 69.03 18.17L69.03 18.17L69.03 18.17Q68.82 18.10 68.52 17.95L68.52 17.95L68.88 17.15L68.88 17.15Q69.23 17.37 69.89 17.37L69.89 17.37L69.89 17.37Q70.48 17.37 70.85 16.60L70.85 16.60L70.85 16.60Q71.22 15.82 71.22 14.60L71.22 14.60L71.22 14.60Q71.22 13.90 70.94 13.32L70.94 13.32L70.94 13.32Q70.66 12.74 70.17 12.41L70.17 12.41L70.17 12.41Q69.68 12.08 69.08 12.08L69.08 12.08L69.08 12.08Q68.35 12.08 67.96 12.87L67.96 12.87L67.96 12.87Q67.56 13.65 67.56 15.09L67.56 15.09L67.56 22.13L66.35 22.65L66.35 12.33L66.35 12.33Q66.35 12.08 66.23 11.93L66.23 11.93L66.23 11.93Q66.12 11.77 65.94 11.77L65.94 11.77L65.94 11.77Q65.80 11.77 65.63 11.91L65.63 11.91L65.63 11.91Q65.46 12.05 65.21 12.36L65.21 12.36L65.00 12.15L65.00 12.15Q65.17 11.68 65.59 11.35L65.59 11.35L65.59 11.35Q66.01 11.02 66.43 11.02L66.43 11.02L66.43 11.02Q67.06 11.02 67.34 11.39L67.34 11.39L67.34 11.39Q67.62 11.76 67.62 12.59L67.62 12.59L67.68 12.59L67.68 12.59Q68.00 11.89 68.51 11.45L68.51 11.45L68.51 11.45Q69.02 11.02 69.55 11.02L69.55 11.02ZM75.50 6.41L75.03 9.67L74.56 9.84L73.99 6.93L75.50 6.41ZM75.49 11.14L75.49 16.91L75.49 16.91Q75.49 17.12 75.59 17.26L75.59 17.26L75.59 17.26Q75.70 17.39 75.89 17.39L75.89 17.39L75.89 17.39Q76.05 17.39 76.24 17.25L76.24 17.25L76.24 17.25Q76.43 17.11 76.62 16.84L76.62 16.84L76.85 17.05L76.85 17.05Q76.52 17.65 76.07 17.91L76.07 17.91L76.07 17.91Q75.61 18.16 75.24 18.16L75.24 18.16L75.24 18.16Q74.73 18.16 74.46 17.84L74.46 17.84L74.46 17.84Q74.19 17.51 74.19 16.74L74.19 16.74L74.19 11.65L75.49 11.14ZM80.98 10.96L81.23 11.26L81.23 11.26Q80.18 11.93 79.58 12.75L79.58 12.75L79.58 12.75Q78.97 13.58 78.97 14.70L78.97 14.70L78.97 14.70Q78.97 15.33 79.24 15.97L79.24 15.97L79.24 15.97Q79.51 16.60 80.04 17.02L80.04 17.02L80.04 17.02Q80.57 17.44 81.31 17.44L81.31 17.44L81.31 17.44Q81.91 17.44 82.38 17.16L82.38 17.16L82.38 17.16Q82.85 16.88 83.11 16.41L83.11 16.41L83.11 16.41Q83.37 15.93 83.37 15.36L83.37 15.36L83.37 15.36Q83.37 14.70 82.97 14.01L82.97 14.01L82.97 14.01Q82.57 13.33 81.93 12.85L81.93 12.85L81.93 12.85Q81.28 12.38 80.61 12.32L80.61 12.32L80.61 12.32Q80.89 12.04 81.28 11.73L81.28 11.73L81.28 11.73Q81.68 11.42 82.08 11.13L82.08 11.13L82.08 11.13Q83.05 11.45 83.61 12.36L83.61 12.36L83.61 12.36Q84.17 13.26 84.17 14.36L84.17 14.36L84.17 14.36Q84.17 15.34 83.77 16.25L83.77 16.25L83.77 16.25Q83.37 17.15 82.60 17.72L82.60 17.72L82.60 17.72Q81.83 18.28 80.78 18.28L80.78 18.28L80.78 18.28Q79.94 18.28 79.23 17.87L79.23 17.87L79.23 17.87Q78.53 17.46 78.12 16.74L78.12 16.74L78.12 16.74Q77.71 16.03 77.71 15.16L77.71 15.16L77.71 15.16Q77.71 13.64 78.62 12.52L78.62 12.52L78.62 12.52Q79.52 11.40 80.98 10.96L80.98 10.96Z"></path></g><!----><!----></svg>